<svg xmlns="http://www.w3.org/2000/svg" viewBox="0 0 64 64" role="img" aria-label="DF favicon">
  <defs>
    <linearGradient id="bg" x1="0" y1="0" x2="1" y2="1">
      <stop offset="0%" stop-color="#32ffd6"/>
      <stop offset="50%" stop-color="#d6ff36"/>
      <stop offset="100%" stop-color="#2f8fff"/>
    </linearGradient>
    <linearGradient id="fg" x1="0" y1="0" x2="1" y2="1">
      <stop offset="0%" stop-color="#061022"/>
      <stop offset="100%" stop-color="#0b2f2a"/>
    </linearGradient>
  </defs>
  <rect x="2" y="2" width="60" height="60" rx="14" fill="url(#bg)"/>
  <rect x="5" y="5" width="54" height="54" rx="11" fill="rgba(255,255,255,0.22)"/>
  <path fill="url(#fg)" d="M17 17h14c7 0 12 5 12 12s-5 12-12 12h-5v7h-9V17zm9 8v8h5c2 0 3-2 3-4s-1-4-3-4h-5z"/>
  <path fill="url(#fg)" d="M39 17h13v8h-13v6h11v8H39v11h-9V17h9z"/>
</svg>
